<?xml version="1.0" standalone="no"?>
<!DOCTYPE svg PUBLIC "-//W3C//DTD SVG 20010904//EN"
 "http://www.w3.org/TR/2001/REC-SVG-20010904/DTD/svg10.dtd">
<svg version="1.0" xmlns="http://www.w3.org/2000/svg"
 width="240.000000pt" height="240.000000pt" viewBox="0 0 240.000000 240.000000"
 preserveAspectRatio="xMidYMid meet">
<metadata>
Created by potrace 1.16, written by Peter Selinger 2001-2019
</metadata>
<g transform="translate(0.000000,240.000000) scale(0.100000,-0.100000)"
fill="#000000" stroke="none">
<path d="M0 1200 l0 -1200 1200 0 1200 0 0 1200 0 1200 -1200 0 -1200 0 0
-1200z m1584 587 c49 -53 88 -131 84 -173 -3 -35 -5 -36 -106 -80 -108 -47
-154 -53 -160 -21 -5 27 17 47 83 78 l60 27 -48 21 c-129 56 -184 66 -352 66
-177 0 -262 -16 -392 -75 -76 -34 -86 -36 -81 -14 4 20 112 87 187 115 189 71
439 68 638 -6 35 -13 63 -22 63 -19 0 3 -9 23 -21 45 -35 70 -8 92 45 36z
m-12 -405 l33 -32 3 -180 3 -180 -30 0 -31 0 0 165 c0 152 -2 167 -20 185 -19
19 -33 20 -395 20 -362 0 -376 -1 -395 -20 -19 -19 -20 -33 -20 -279 0 -240 1
-261 19 -282 l19 -24 291 -3 291 -3 0 -24 0 -25 -295 0 c-329 0 -339 2 -369
64 -13 29 -16 74 -16 296 0 289 3 303 63 341 31 18 49 19 424 17 l393 -3 32
-33z m-615 -198 c76 -65 147 -125 158 -135 20 -18 24 -15 180 117 108 92 166
134 180 132 45 -7 25 -36 -90 -133 -63 -53 -115 -99 -115 -102 0 -3 32 -35 70
-70 68 -63 70 -66 54 -84 -9 -11 -20 -19 -24 -19 -4 0 -40 30 -79 66 l-72 67
-39 -32 c-21 -17 -42 -31 -45 -31 -3 0 -24 14 -45 31 l-39 32 -119 -112 c-66
-61 -124 -111 -129 -111 -6 0 -17 7 -24 16 -12 15 0 30 105 130 65 62 115 117
112 123 -4 5 -56 51 -116 102 -103 87 -120 106 -103 122 18 19 54 -3 180 -109z
m701 -280 c89 -58 105 -172 35 -255 -65 -77 -184 -79 -255 -3 -51 55 -61 120
-29 190 42 92 162 125 249 68z"/>
<path d="M1527 852 c-20 -22 -24 -67 -8 -105 10 -27 9 -29 -19 -40 -37 -14
-37 -20 -4 -46 34 -27 89 -27 132 -1 40 25 41 36 1 44 -27 5 -30 9 -24 28 4
13 10 43 12 67 4 35 1 47 -13 58 -25 18 -58 16 -77 -5z"/>
</g>
</svg>
